<?xml version="1.0" encoding="utf-8"?>
<!-- Generator: Adobe Illustrator 24.0.0, SVG Export Plug-In . SVG Version: 6.00 Build 0)  -->
<svg version="1.1" id="Capa_1" xmlns="http://www.w3.org/2000/svg" xmlns:xlink="http://www.w3.org/1999/xlink" x="0px" y="0px"
	 viewBox="0 0 143.9 151.3" style="enable-background:new 0 0 143.9 151.3;" xml:space="preserve">
<style type="text/css">
	.st0{fill:#767676;}
	.st1{fill:#5C5C5C;}
	.st2{fill:#505050;}
	.st3{fill:#696969;}
	.st4{fill:#FFEF1B;}
</style>
<g>
	<path class="st0" d="M4,40.8c0.3,0.1,0.3,0.3,0.2,0.5c-0.1,0.1-0.1,0.1-0.2,0C4,41.2,4,41,4,40.8z"/>
	<path class="st1" d="M4,41.4c0.1,0,0.1,0,0.2,0c0,0.2,0,0.4-0.2,0.5C4,41.7,4,41.5,4,41.4z"/>
	<path class="st1" d="M4,105.7c0.3,0.1,0.3,0.3,0.2,0.5c-0.1,0.1-0.2,0.1-0.2,0C4,106,4,105.8,4,105.7z"/>
	<path class="st0" d="M4,106.2c0.1,0,0.1,0,0.2,0c0,0.2,0.1,0.4-0.2,0.5C4,106.5,4,106.4,4,106.2z"/>
	<path class="st0" d="M39.1,6.5c-0.2,0-0.4,0.1-0.5-0.2c0.2,0,0.4,0,0.5,0C39.2,6.4,39.2,6.4,39.1,6.5C39.1,6.5,39.1,6.5,39.1,6.5z"
		/>
	<path class="st1" d="M39.1,6.5c0-0.1,0-0.1,0-0.2c0.2,0,0.4,0,0.5,0C39.5,6.6,39.3,6.6,39.1,6.5z"/>
	<path class="st2" d="M103.7,6.5c-0.2,0-0.4,0-0.5-0.2c0.2,0,0.4,0,0.5,0C103.7,6.3,103.8,6.4,103.7,6.5
		C103.7,6.5,103.7,6.5,103.7,6.5z"/>
	<path class="st3" d="M103.7,6.5c0-0.1,0-0.1,0-0.2c0.2,0,0.4,0,0.5,0C104.1,6.6,103.9,6.6,103.7,6.5z"/>
	<path class="st4" d="M35.6,140.8c2.1,0.3,4.3,0.5,6.4,0.5c19.6,0,39.3,0,58.9,0c13.2,0,23.8-5.4,31.4-16.2
		c4.5-6.3,6.6-13.5,6.6-21.3c0-20,0.2-40-0.1-60c-0.2-16.1-8-27.6-22.5-34.5c-3.3-1.6-6.9-2.4-10.5-2.8c-0.2,0-0.5,0.1-0.7-0.3
		c-0.4,0-0.7,0-1.1,0c-0.1,0.2-0.3,0.1-0.5,0.1c-0.2,0-0.4,0-0.5-0.1c-21.2,0-42.3,0-63.5,0c-0.1,0.2-0.3,0.1-0.5,0.1
		c-0.2,0-0.4,0-0.5-0.1c-0.4,0-0.7,0-1.1,0C34.7,6.6,31.9,7,29.2,8c-6.1,2.1-11.4,5.6-15.7,10.4c-2.8,3.1-5,6.4-6.6,10.2
		C5.3,32.1,4.3,35.7,4,39.5c0,0.4,0,0.9,0,1.3c0.2,0.1,0.1,0.3,0.1,0.5c0,0.2,0,0.4-0.1,0.5c0,21.3,0,42.5,0,63.8
		c0.2,0.1,0.1,0.3,0.1,0.5c0,0.2,0,0.4-0.1,0.5c0,0.4,0,0.9,0,1.3c0.8,1.7,0.8,3.6,1.2,5.4C9,127.7,21.1,138.6,35.6,140.8z
		 M33.2,19.6c2.8-1,5.8-1.4,8.8-1.4c19.7,0,39.4,0,59,0c11.6,0,20.9,6.5,24.7,17.2c1,2.9,1.3,5.9,1.3,8.9c0,9.7,0,19.5,0,29.2
		c0,9.8,0,19.7,0,29.5c0,5.6-1.3,10.8-4.7,15.3c-5.2,7.2-12.4,10.7-21.2,10.7c-19.8,0-39.5,0-59.3,0c-11.5,0-20.7-6.5-24.5-17.2
		c-1-2.8-1.3-5.8-1.3-8.8c0-19.6,0-39.3,0-58.9C16,32.7,22.4,23.5,33.2,19.6z"/>
	<path class="st4" d="M107.7,28.9c4.8,0,8.8,3.9,8.8,8.7c0,4.7-3.9,8.7-8.7,8.8c-4.8,0.1-8.8-3.8-8.9-8.7
		C98.8,33,102.8,28.9,107.7,28.9z"/>
	<path class="st4" d="M71.5,39c-19.1,0-34.8,15.6-34.8,34.7c0,19.1,15.6,34.8,34.7,34.8c19.1,0,34.8-15.6,34.8-34.7
		C106.3,54.7,90.6,39,71.5,39z M71.5,96.5c-12.5,0-22.7-10.2-22.8-22.7C48.7,61.3,59,50.9,71.6,51c12.6,0.1,22.8,10.3,22.7,22.8
		C94.2,86.4,84,96.5,71.5,96.5z"/>
</g>
</svg>
