<?xml version="1.0" encoding="utf-8"?>
<!-- Generator: Adobe Illustrator 24.0.0, SVG Export Plug-In . SVG Version: 6.00 Build 0)  -->
<svg version="1.1" id="Capa_1" xmlns="http://www.w3.org/2000/svg" xmlns:xlink="http://www.w3.org/1999/xlink" x="0px" y="0px"
	 viewBox="0 0 841.9 595.3" style="enable-background:new 0 0 841.9 595.3;" xml:space="preserve">
<style type="text/css">
	.st0{fill:#FFEF1B;}
</style>
<path class="st0" d="M268.7,174.2c-0.1,20.1,0,40.3,0,60.4c0,62.1,0,124.2,0,186.3c0,12,5,21,15.8,26.5c4,2,8.3,2.7,12.7,2.7
	c82.7,0,165.3,0,248,0c13.4,0,23.1-7.3,27.4-20.1c0.2-0.7,0.2-1.6,1.1-1.9c0-86.7,0-173.5,0-260.2c-1.5-2-1.5-4.5-2.6-6.7
	c-3.8-7.5-9.6-12.6-17.7-14.9c-0.8-0.2-1.8-0.1-2.3-1.1c-86.6,0-173.1,0-259.7,0c-2,1.5-4.6,1.5-6.8,2.7
	C273.9,153.5,268.7,162.3,268.7,174.2z M363,407.3c0,6.3-3,9.3-9.3,9.4c-10.5,0.1-21,0.1-31.5,0c-6.4,0-9.4-3.1-9.4-9.6
	c0-23.4,0-46.8,0-70.2c0-23.1,0-46.2,0-69.3c0-7.2,2.9-10.1,10.1-10.1c10.2,0,20.4,0,30.7,0c6.4,0,9.5,3,9.5,9.5
	C363,313.6,363,360.4,363,407.3z M394.8,257.3c10.7,0,21.4,0,32.2,0c6,0,8.9,3,9,8.9c0,3.3,0,6.5,0,9.8c4-4.5,7.9-8.8,12.8-12.1
	c6.9-4.6,14.6-7.1,22.7-8.1c13.1-1.6,26-1.2,38.3,4.2c12.5,5.4,20.3,15.2,25.2,27.5c5.2,13.2,6.4,27.2,6.5,41.2
	c0.2,26.4,0.1,52.8,0.1,79.2c0,5.9-2.8,8.8-8.7,8.8c-11.3,0-22.6,0-33.9,0c-5.9,0-8.7-2.9-8.7-8.8c0-24.9,0-49.8,0-74.7
	c0-6.4-0.7-12.7-2.9-18.7c-3.4-9.3-9.8-15-19.8-16c-11.5-1.1-20.4,3-26,13.4c-3.8,7.2-5.6,15-5.6,23.2c0,24,0,48,0,72
	c0,7-2.7,9.7-9.7,9.7c-10.4,0-20.8,0-31.3,0c-6.4,0-9.3-2.8-9.3-9.2c0-46.9,0-93.9,0-140.8C385.6,260.2,388.5,257.3,394.8,257.3z
	 M337.8,179c17.8-0.1,32.6,14.6,32.6,32.5c0,17.8-14.5,32.3-32.4,32.3c-17.9,0.1-32.4-14.3-32.5-32.2
	C305.4,193.6,319.8,179.1,337.8,179z"/>
</svg>
