<?xml version="1.0" encoding="utf-8"?>
<!-- Generator: Adobe Illustrator 24.0.0, SVG Export Plug-In . SVG Version: 6.00 Build 0)  -->
<svg version="1.1" id="Capa_1" xmlns="http://www.w3.org/2000/svg" xmlns:xlink="http://www.w3.org/1999/xlink" x="0px" y="0px"
	 viewBox="0 0 261 274.4" style="enable-background:new 0 0 261 274.4;" xml:space="preserve">
<style type="text/css">
	.st0{fill:#767676;}
	.st1{fill:#5C5C5C;}
	.st2{fill:#505050;}
	.st3{fill:#696969;}
	.st4{fill:#FFEF1B;}
</style>
<path class="st4" d="M8.1,36c-0.1,16.2,0,32.5,0,48.7c0,50.1,0,100.2,0,150.3c0,9.6,4,16.9,12.7,21.4c3.2,1.6,6.7,2.2,10.2,2.2
	c66.7,0,133.3,0,200,0c10.8,0,18.7-5.9,22.1-16.2c0.2-0.6,0.2-1.3,0.9-1.6c0-70,0-139.9,0-209.9c-1.2-1.6-1.2-3.7-2.1-5.4
	c-3.1-6-7.7-10.1-14.3-12c-0.6-0.2-1.5-0.1-1.8-0.9c-69.8,0-139.6,0-209.4,0c-1.6,1.2-3.7,1.2-5.5,2.1C12.3,19.3,8.1,26.5,8.1,36z
	 M84.1,224c0,5.1-2.4,7.5-7.5,7.5c-8.5,0-17,0-25.4,0c-5.1,0-7.6-2.5-7.6-7.8c0-18.9,0-37.8,0-56.6c0-18.6,0-37.3,0-55.9
	c0-5.8,2.4-8.2,8.1-8.2c8.2,0,16.5,0,24.7,0c5.2,0,7.6,2.4,7.6,7.6C84.1,148.5,84.1,186.2,84.1,224z M109.8,103.1
	c8.6,0,17.3,0,25.9,0c4.8,0,7.2,2.4,7.2,7.2c0,2.6,0,5.3,0,7.9c3.3-3.6,6.4-7.1,10.3-9.8c5.6-3.8,11.7-5.7,18.3-6.6
	c10.5-1.3,20.9-0.9,30.9,3.4c10.1,4.4,16.4,12.2,20.3,22.2c4.2,10.7,5.2,21.9,5.3,33.2c0.2,21.3,0.1,42.6,0.1,63.9
	c0,4.7-2.3,7.1-7,7.1c-9.1,0-18.2,0-27.4,0c-4.7,0-7-2.4-7-7.1c0-20.1,0-40.2,0-60.3c0-5.1-0.6-10.2-2.3-15.1
	c-2.7-7.5-7.9-12.1-16-12.9c-9.3-0.9-16.5,2.4-20.9,10.8c-3.1,5.8-4.5,12.1-4.5,18.7c0,19.4,0,38.7,0,58.1c0,5.6-2.2,7.8-7.8,7.8
	c-8.4,0-16.8,0-25.2,0c-5.2,0-7.5-2.3-7.5-7.4c0-37.9,0-75.7,0-113.6C102.4,105.4,104.7,103.1,109.8,103.1z M63.8,39.9
	c14.4-0.1,26.3,11.8,26.3,26.2c0,14.4-11.7,26-26.1,26.1c-14.4,0.1-26.1-11.5-26.2-25.9C37.7,51.7,49.3,40,63.8,39.9z"/>
</svg>
