<?xml version="1.0" encoding="utf-8"?>
<!-- Generator: Adobe Illustrator 24.0.0, SVG Export Plug-In . SVG Version: 6.00 Build 0)  -->
<svg version="1.1" id="Capa_1" xmlns="http://www.w3.org/2000/svg" xmlns:xlink="http://www.w3.org/1999/xlink" x="0px" y="0px"
	 viewBox="0 0 261 274.4" style="enable-background:new 0 0 261 274.4;" xml:space="preserve">
<style type="text/css">
	.st0{fill:#767676;}
	.st1{fill:#5C5C5C;}
	.st2{fill:#505050;}
	.st3{fill:#696969;}
	.st4{fill:#FFEF1B;}
</style>
<g>
	<path class="st4" d="M93.6,145.3c-4.2-0.1-8.5,0-12.7,0c-4.6,0-9.3,0.1-13.9,0c-1.4,0-1.7,0.4-1.7,1.7c0.1,8.4,0.1,16.9,0,25.3
		c0,1.3,0.3,1.7,1.7,1.7c8.9-0.1,17.7,0,26.6,0c8.5-0.1,14.8-6.2,14.9-14.2C108.6,151.7,102.1,145.4,93.6,145.3z"/>
	<path class="st4" d="M172,131c-8.7,0.6-17.2,7-18.7,14.3c13.3,0,26.7,0,40.2,0C190.3,136.1,181.4,130.3,172,131z"/>
	<path class="st4" d="M94.2,102.2c-9.1-0.2-18.2,0-27.3-0.1c-1.3,0-1.6,0.4-1.6,1.6c0.1,8.5,0.1,17.1,0,25.6c0,1.5,0.6,1.6,1.8,1.6
		c4.6-0.1,9.1,0,13.7,0c0,0,0,0,0,0c4.5,0,8.9,0.1,13.4,0c8.1-0.2,14.3-6.5,14.3-14.3C108.5,108.7,102.3,102.3,94.2,102.2z"/>
	<path class="st4" d="M252.1,40.7c-4.3-14.1-18.2-25.6-34-25.6c-58.8,0.1-117.6,0.1-176.3,0c-6.2,0-11.9,1.5-17.1,4.8
		C14.8,26.2,8.4,34.7,7.3,46.6c0,61,0,122,0,183c0.3,4.7,1.7,9,4.1,13c6.2,10.2,14.9,16.8,27.1,18.1c60.6,0,121.3,0,181.9,0
		c5-0.3,9.7-1.5,14.1-4c10.5-6.1,17.1-14.9,18.6-27.1c0-60.8,0-121.7,0-182.5C252.5,45,252.7,42.8,252.1,40.7z M120.7,170.5
		c-5,11.4-13.9,17.5-26.4,17.8c-13.8,0.3-27.7,0-41.5,0.1c-1.6,0-1.9-0.4-1.9-2c0.1-16.1,0-32.2,0-48.4c0-16,0-32.1,0-48.1
		c0-1.8,0.4-2.2,2.2-2.2c13.8,0.1,27.5-0.1,41.3,0.1c16.6,0.2,29.4,13.9,28.5,30.4c-0.4,7.2-3.3,13.4-8.5,18.5
		c-1.1,1.1-1.1,1.7,0,2.8C122.8,147.8,125.4,159.9,120.7,170.5z M144.5,89.4c0-1.1,0-1.7,1.5-1.7c18.2,0.1,36.5,0,54.7,0
		c1.2,0,1.5,0.3,1.5,1.5c-0.1,3.7-0.1,7.3,0,11c0.1,1.6-0.4,2-2,1.9c-9-0.1-17.9,0-26.9,0c-9,0-17.9,0-26.9,0c-1.6,0-2-0.4-1.9-2
		C144.6,96.6,144.6,93,144.5,89.4z M207.9,159.6c-3.2-0.1-6.4,0-9.6,0c-14.8,0-29.6,0-44.4,0c-0.2,0-0.3,0-0.9,0.1
		c3.3,7.9,8.8,12.7,17,13.9c8.5,1.3,15.4-1.7,20.6-8.5c1.1-1.5,1.8-1.9,3.5-0.8c2.8,1.8,5.7,3.5,8.7,5c1.3,0.7,1.6,1.2,0.7,2.6
		c-9,12.7-21.2,18.4-36.5,15.7c-15-2.7-24.8-12.1-28.6-26.9c-5.1-19.7,8.1-39.8,28.2-43.6c20.1-3.8,39.4,10,42.3,30.3
		c0.5,3.6,0.3,7.2,0.4,10.8C209.4,159.3,209,159.7,207.9,159.6z"/>
</g>
</svg>
