<?xml version="1.0" encoding="utf-8"?>
<!-- Generator: Adobe Illustrator 24.0.0, SVG Export Plug-In . SVG Version: 6.00 Build 0)  -->
<svg version="1.1" id="Capa_1" xmlns="http://www.w3.org/2000/svg" xmlns:xlink="http://www.w3.org/1999/xlink" x="0px" y="0px"
	 viewBox="0 0 841.9 595.3" style="enable-background:new 0 0 841.9 595.3;" xml:space="preserve">
<style type="text/css">
	.st0{fill:#FFEF1B;}
</style>
<g>
	<path class="st0" d="M359.9,310.5c-7.1-0.1-14.1,0-21.2,0c-7.7,0-15.4,0.1-23.2-0.1c-2.3,0-2.8,0.7-2.8,2.9
		c0.1,14.1,0.1,28.2,0,42.2c0,2.2,0.5,2.9,2.8,2.9c14.8-0.1,29.5,0,44.3-0.1c14.1-0.1,24.7-10.4,24.9-23.7
		C384.9,321.1,374.2,310.6,359.9,310.5z"/>
	<path class="st0" d="M490.6,286.6c-14.5,1-28.6,11.7-31.1,23.8c22.2,0,44.4,0,67,0C521,295.2,506.3,285.6,490.6,286.6z"/>
	<path class="st0" d="M360.9,238.7c-15.2-0.3-30.3,0-45.5-0.1c-2.1,0-2.6,0.6-2.6,2.7c0.1,14.2,0.1,28.4,0,42.6c0,2.5,1,2.7,3,2.7
		c7.6-0.1,15.2,0,22.8,0c0,0,0,0,0,0c7.5,0,14.9,0.2,22.4,0c13.5-0.4,23.9-10.9,23.9-23.9C384.8,249.6,374.4,238.9,360.9,238.7z"/>
	<path class="st0" d="M623.9,136.3c-7.2-23.5-30.3-42.6-56.7-42.6c-97.9,0.2-195.9,0.1-293.8,0c-10.3,0-19.8,2.4-28.4,7.9
		c-16.3,10.4-27,24.6-28.9,44.4c0,101.6,0,203.3,0,304.9c0.6,7.8,2.9,15.1,6.9,21.7c10.3,17,24.8,27.9,45.1,30.2
		c101,0,202.1,0,303.1,0c8.3-0.5,16.2-2.5,23.5-6.7c17.5-10.2,28.5-24.8,30.9-45.2c0-101.4,0-202.7,0-304.1
		C624.7,143.4,625,139.7,623.9,136.3z M405.1,352.6c-8.3,19-23.2,29.2-43.9,29.6c-23,0.5-46.1,0.1-69.2,0.2c-2.7,0-3.2-0.7-3.2-3.3
		c0.1-26.9,0.1-53.7,0.1-80.6c0-26.7,0.1-53.5-0.1-80.2c0-3,0.7-3.7,3.7-3.7c22.9,0.1,45.8-0.1,68.8,0.1c27.7,0.3,49,23.1,47.5,50.7
		c-0.7,12-5.5,22.3-14.1,30.8c-1.9,1.9-1.8,2.8,0,4.6C408.5,314.8,412.8,334.8,405.1,352.6z M444.8,217.4c0-1.8,0-2.8,2.5-2.8
		c30.4,0.1,60.8,0.1,91.1,0c2,0,2.5,0.6,2.4,2.5c-0.1,6.1-0.2,12.2,0,18.4c0.1,2.7-0.7,3.3-3.3,3.2c-14.9-0.1-29.8-0.1-44.8-0.1
		s-29.9-0.1-44.8,0.1c-2.7,0-3.3-0.7-3.2-3.3C444.9,229.4,444.8,223.4,444.8,217.4z M550.3,334.4c-5.3-0.1-10.7,0-16,0
		c-24.7,0-49.3,0-74,0c-0.3,0-0.5,0.1-1.4,0.2c5.4,13.1,14.7,21.1,28.4,23.2c14.1,2.2,25.7-2.9,34.3-14.2c1.9-2.5,3.1-3.1,5.8-1.3
		c4.7,3.1,9.6,5.7,14.5,8.4c2.2,1.2,2.7,2.1,1.1,4.3c-15,21.1-35.4,30.7-60.8,26.1c-25.1-4.5-41.3-20.1-47.6-44.8
		c-8.4-32.8,13.5-66.3,47-72.7c33.4-6.4,65.6,16.7,70.5,50.5c0.9,6,0.4,11.9,0.7,17.9C552.9,333.9,552.3,334.5,550.3,334.4z"/>
</g>
</svg>
