<?xml version="1.0" encoding="utf-8"?>
<!-- Generator: Adobe Illustrator 24.0.0, SVG Export Plug-In . SVG Version: 6.00 Build 0)  -->
<svg version="1.1" id="Capa_1" xmlns="http://www.w3.org/2000/svg" xmlns:xlink="http://www.w3.org/1999/xlink" x="0px" y="0px"
	 viewBox="0 0 261 274.4" style="enable-background:new 0 0 261 274.4;" xml:space="preserve">
<style type="text/css">
	.st0{fill:#767676;}
	.st1{fill:#5C5C5C;}
	.st2{fill:#505050;}
	.st3{fill:#696969;}
	.st4{fill:#FFEF1B;}
</style>
<g>
	<path class="st0" d="M4,70c0.6,0.1,0.5,0.6,0.4,1c-0.1,0.2-0.3,0.2-0.4,0C4,70.6,4,70.3,4,70z"/>
	<path class="st1" d="M4,71c0.1,0,0.3,0,0.4,0c0.1,0.4,0.1,0.8-0.4,1C4,71.6,4,71.3,4,71z"/>
	<path class="st1" d="M4,189.6c0.5,0.2,0.5,0.6,0.4,1c-0.1,0.2-0.3,0.2-0.4,0C4,190.3,4,189.9,4,189.6z"/>
	<path class="st0" d="M4,190.6c0.1,0,0.3,0,0.4,0c0.1,0.4,0.2,0.8-0.4,1C4,191.2,4,190.9,4,190.6z"/>
	<path class="st0" d="M68.7,6.7c-0.4,0.1-0.8,0.1-1-0.4c0.3,0,0.6,0,1,0c0.2,0.1,0.2,0.2,0.2,0.3C68.8,6.7,68.7,6.7,68.7,6.7z"/>
	<path class="st1" d="M68.7,6.7c0-0.1,0-0.3,0-0.4c0.3,0,0.6,0,1,0C69.5,6.8,69.1,6.8,68.7,6.7z"/>
	<path class="st2" d="M187.8,6.7c-0.4,0.1-0.8,0-1-0.4c0.3,0,0.6,0,1,0c0.2,0.1,0.2,0.2,0.2,0.3C187.9,6.7,187.9,6.7,187.8,6.7z"/>
	<path class="st3" d="M187.8,6.7c0-0.1,0-0.3,0-0.4c0.3,0,0.6,0,1,0C188.7,6.8,188.2,6.8,187.8,6.7z"/>
	<path class="st4" d="M62.3,254.4c3.9,0.6,7.9,0.9,11.9,0.9c36.2,0,72.4,0.1,108.7,0c24.4-0.1,43.8-10,58-29.9
		c8.3-11.7,12.1-24.9,12.1-39.2c0-36.9,0.4-73.7-0.1-110.6c-0.4-29.7-14.8-50.9-41.6-63.6c-6.1-2.9-12.7-4.4-19.4-5.1
		c-0.4,0-1,0.2-1.2-0.5c-0.6,0-1.3,0-1.9,0c-0.3,0.3-0.6,0.2-1,0.3c-0.3,0-0.7,0-1-0.3c-39.1,0-78.1,0-117.2,0
		c-0.3,0.3-0.6,0.2-1,0.3c-0.3,0-0.7,0-1-0.3c-0.6,0-1.3,0-1.9,0c-5.2,0.5-10.4,1.4-15.4,3.1c-11.3,4-21,10.3-29,19.2
		c-5.1,5.6-9.3,11.9-12.2,18.9C6.4,53.9,4.6,60.6,4,67.6c0,0.8,0,1.6,0,2.4c0.3,0.3,0.2,0.6,0.3,1c0,0.3,0,0.7-0.3,1
		c0,39.2,0,78.4,0,117.7c0.3,0.3,0.2,0.6,0.3,1c0,0.3,0,0.7-0.3,1c0,0.8,0,1.6,0,2.4c1.5,3.2,1.4,6.7,2.3,10
		C13.2,230.3,35.4,250.4,62.3,254.4z M57.8,30.9C63,29,68.5,28.4,74,28.4c36.3,0,72.6,0,108.9,0c21.4,0,38.5,12,45.5,31.8
		c1.9,5.3,2.5,10.9,2.5,16.5c0,18,0,36,0,54c0,18.1,0,36.3,0,54.4c0,10.3-2.5,19.9-8.6,28.3c-9.6,13.2-22.8,19.8-39.1,19.8
		c-36.5,0.1-72.9,0.1-109.4,0c-21.3,0-38.3-12.1-45.3-31.8c-1.9-5.2-2.5-10.7-2.5-16.2c0-36.2,0-72.4,0-108.7
		C26.1,55,38,38,57.8,30.9z"/>
	<path class="st4" d="M195.2,48c8.9-0.1,16.3,7.2,16.3,16.1c0.1,8.7-7.2,16.1-16,16.2c-8.9,0.1-16.2-7-16.4-16
		C178.9,55.5,186.3,48.1,195.2,48z"/>
	<path class="st4" d="M128.6,66.6c-35.2-0.1-64.1,28.8-64.2,64.1c-0.1,35.2,28.8,64.1,64.1,64.2c35.2,0.1,64.1-28.8,64.2-64.1
		C192.7,95.7,163.8,66.7,128.6,66.6z M128.5,172.8c-23.1,0-41.9-18.7-42-42c-0.1-23.1,19-42.3,42.1-42.1c23.3,0.2,42,19,41.9,42.1
		C170.4,154,151.7,172.8,128.5,172.8z"/>
</g>
</svg>
